<mxfile host="app.diagrams.net" modified="2024-05-10T07:37:36.139Z" agent="Mozilla/5.0 (Macintosh; Intel Mac OS X 10_15_7) AppleWebKit/537.36 (KHTML, like Gecko) Chrome/124.0.0.0 Safari/537.36" version="24.3.1" etag="Hdh1yrYzX8ockzoFZ2bV" type="github">
  <diagram name="第 1 页" id="w7nAxVjqwpt3slUGPrkT">
    <mxGraphModel>
      <root>
        <mxCell id="0" />
        <mxCell id="1" parent="0" />
      </root>
    </mxGraphModel>
  </diagram>
</mxfile>
